<?xml version="1.0" encoding="UTF-8" standalone="no"?><!DOCTYPE svg PUBLIC "-//W3C//DTD SVG 1.1//EN" "http://www.w3.org/Graphics/SVG/1.1/DTD/svg11.dtd"><svg width="100%" height="100%" viewBox="0 0 504 491" version="1.1" xmlns="http://www.w3.org/2000/svg" xmlns:xlink="http://www.w3.org/1999/xlink" xml:space="preserve" xmlns:serif="http://www.serif.com/" style="fill-rule:evenodd;clip-rule:evenodd;stroke-linejoin:round;stroke-miterlimit:2;"><path d="M251.617,0c-138.946,0 -251.617,112.646 -251.617,251.617c0,111.166 72.096,205.483 172.071,238.754c12.575,2.329 17.191,-5.459 17.191,-12.104c0,-5.996 -0.233,-25.821 -0.341,-46.846c-70,15.221 -84.771,-29.688 -84.771,-29.688c-11.446,-29.079 -27.938,-36.816 -27.938,-36.816c-22.829,-15.617 1.721,-15.296 1.721,-15.296c25.267,1.775 38.571,25.933 38.571,25.933c22.442,38.463 58.863,27.342 73.221,20.913c2.262,-16.259 8.779,-27.363 15.975,-33.646c-55.888,-6.359 -114.638,-27.938 -114.638,-124.35c0,-27.467 9.83,-49.917 25.925,-67.538c-2.612,-6.337 -11.225,-31.929 2.442,-66.587c0,0 21.129,-6.759 69.208,25.796c20.071,-5.575 41.596,-8.371 62.98,-8.471c21.383,0.1 42.925,2.896 63.033,8.471c48.025,-32.555 69.125,-25.796 69.125,-25.796c13.696,34.658 5.083,60.25 2.471,66.587c16.133,17.621 25.891,40.071 25.891,67.538c0,96.646 -58.862,117.921 -114.891,124.15c9.025,7.808 17.066,23.121 17.066,46.596c0,33.666 -0.287,60.762 -0.287,69.05c0,6.7 4.525,14.541 17.279,12.075c99.925,-33.309 171.929,-127.592 171.929,-238.725c0,-138.971 -112.654,-251.617 -251.616,-251.617" style="fill:#413c69;"/></svg>